<?xml version="1.0" encoding="UTF-8"?>
<svg id="Layer_1" xmlns="http://www.w3.org/2000/svg" version="1.1" xmlns:x="http://ns.adobe.com/Extensibility/1.0/" viewBox="0 0 148.84 167.03">
  <!-- Generator: Adobe Illustrator 30.2.1, SVG Export Plug-In . SVG Version: 2.1.1 Build 1)  -->
  <defs>
    <style>
      .st0 {
        fill: #fff;
      }

      .st1 {
        fill: #025093;
      }
    </style>
  </defs>
  <circle class="st0" cx="74.42" cy="83.52" r="68.03"/>
  <g>
    <path class="st1" d="M42.98,120.23h13.27V55.8h-13.27v64.43Z"/>
    <path class="st1" d="M56.26,47.33c0-.55-.45-1-1-1h-11.28c-.55,0-1,.45-1,1v7.49h13.28s0-7.49,0-7.49Z"/>
    <path class="st1" d="M42.98,128.7c0,.55.45,1,1,1h11.28c.55,0,1-.45,1-1v-7.5h-13.28v7.5Z"/>
    <path class="st1" d="M103.93,114.93l16-2.99-9.44-50.49-16,2.99,9.44,50.49Z"/>
    <path class="st1" d="M107.64,46.16c-.1-.54-.63-.9-1.17-.8l-14.03,2.62c-.54.1-.9.63-.8,1.17l2.68,14.32,16-2.99-2.68-14.32Z"/>
    <path class="st1" d="M106.59,129.14c.1.54.62.9,1.17.8l14.03-2.63c.54-.1.9-.63.8-1.17l-2.48-13.25-16,2.99,2.48,13.25Z"/>
    <path class="st1" d="M73.27,51.07h-13.67c-.55,0-1,.45-1,1v76.63c0,.55.45,1,1,1h13.67c.55,0,1-.45,1-1V52.07c0-.55-.45-1-1-1ZM72.15,103.41h-11.42v-23h11.42v23Z"/>
    <path class="st1" d="M26.23,114.32h13.87v-62.76h-13.87v62.76Z"/>
    <path class="st1" d="M40.11,38.48c0-.55-.45-1-1-1h-11.88c-.55,0-1,.45-1,1v12.1h13.88v-12.1Z"/>
    <path class="st1" d="M26.23,128.7c0,.55.45,1,1,1h11.88c.55,0,1-.45,1-1v-13.41h-13.88v13.41Z"/>
    <path class="st1" d="M79.19,114.48l13.85-.72-3.24-62.68-13.85.72,3.24,62.68Z"/>
    <path class="st1" d="M89.13,38.03c-.03-.55-.5-.98-1.05-.95l-11.86.61c-.55.03-.98.5-.95,1.05l.62,12.08,13.86-.72-.62-12.08Z"/>
    <path class="st1" d="M79.93,128.84c.03.55.5.97,1.05.95l11.86-.61c.55-.03.97-.5.95-1.05l-.69-13.39-13.86.72.69,13.39Z"/>
  </g>
</svg>